<svg xmlns="http://www.w3.org/2000/svg" viewBox="0 0 32 32" width="32" height="32">
  <defs>
    <radialGradient id="lotusGradient" cx="50%" cy="50%" r="70%">
      <stop offset="0%" style="stop-color:#FFB6C1;stop-opacity:1" />
      <stop offset="40%" style="stop-color:#FF69B4;stop-opacity:1" />
      <stop offset="80%" style="stop-color:#C71585;stop-opacity:1" />
      <stop offset="100%" style="stop-color:#8B008B;stop-opacity:0.9" />
    </radialGradient>
    <radialGradient id="centerGradient" cx="50%" cy="50%" r="60%">
      <stop offset="0%" style="stop-color:#FFCCCB;stop-opacity:1" />
      <stop offset="70%" style="stop-color:#FF1493;stop-opacity:1" />
      <stop offset="100%" style="stop-color:#DC143C;stop-opacity:1" />
    </radialGradient>
    <radialGradient id="glowGradient" cx="50%" cy="50%" r="80%">
      <stop offset="0%" style="stop-color:#FF69B4;stop-opacity:0.4" />
      <stop offset="100%" style="stop-color:#FF69B4;stop-opacity:0" />
    </radialGradient>
  </defs>
  
  <!-- Dark background for mystery -->
  <circle cx="16" cy="16" r="15" fill="#2d1b2e" stroke="#4a2c4a" stroke-width="2"/>
  
  <!-- Outer glow effect -->
  <circle cx="16" cy="16" r="13" fill="url(#glowGradient)" opacity="0.6"/>
  
  <!-- Lotus petals - outer layer -->
  <ellipse cx="16" cy="12" rx="3" ry="8" fill="url(#lotusGradient)" opacity="0.8" transform="rotate(0 16 16)"/>
  <ellipse cx="16" cy="12" rx="3" ry="8" fill="url(#lotusGradient)" opacity="0.8" transform="rotate(45 16 16)"/>
  <ellipse cx="16" cy="12" rx="3" ry="8" fill="url(#lotusGradient)" opacity="0.8" transform="rotate(90 16 16)"/>
  <ellipse cx="16" cy="12" rx="3" ry="8" fill="url(#lotusGradient)" opacity="0.8" transform="rotate(135 16 16)"/>
  <ellipse cx="16" cy="12" rx="3" ry="8" fill="url(#lotusGradient)" opacity="0.8" transform="rotate(180 16 16)"/>
  <ellipse cx="16" cy="12" rx="3" ry="8" fill="url(#lotusGradient)" opacity="0.8" transform="rotate(225 16 16)"/>
  <ellipse cx="16" cy="12" rx="3" ry="8" fill="url(#lotusGradient)" opacity="0.8" transform="rotate(270 16 16)"/>
  <ellipse cx="16" cy="12" rx="3" ry="8" fill="url(#lotusGradient)" opacity="0.8" transform="rotate(315 16 16)"/>
  
  <!-- Lotus petals - inner layer -->
  <ellipse cx="16" cy="13" rx="2" ry="6" fill="url(#lotusGradient)" opacity="0.9" transform="rotate(22.5 16 16)"/>
  <ellipse cx="16" cy="13" rx="2" ry="6" fill="url(#lotusGradient)" opacity="0.9" transform="rotate(67.5 16 16)"/>
  <ellipse cx="16" cy="13" rx="2" ry="6" fill="url(#lotusGradient)" opacity="0.9" transform="rotate(112.5 16 16)"/>
  <ellipse cx="16" cy="13" rx="2" ry="6" fill="url(#lotusGradient)" opacity="0.9" transform="rotate(157.5 16 16)"/>
  <ellipse cx="16" cy="13" rx="2" ry="6" fill="url(#lotusGradient)" opacity="0.9" transform="rotate(202.5 16 16)"/>
  <ellipse cx="16" cy="13" rx="2" ry="6" fill="url(#lotusGradient)" opacity="0.9" transform="rotate(247.5 16 16)"/>
  <ellipse cx="16" cy="13" rx="2" ry="6" fill="url(#lotusGradient)" opacity="0.9" transform="rotate(292.5 16 16)"/>
  <ellipse cx="16" cy="13" rx="2" ry="6" fill="url(#lotusGradient)" opacity="0.9" transform="rotate(337.5 16 16)"/>
  
  <!-- Central spark/energy point -->
  <circle cx="16" cy="16" r="3" fill="url(#centerGradient)"/>
  
  <!-- Small sparkling dots for mystical effect -->
  <circle cx="12" cy="10" r="0.8" fill="#FFB6C1" opacity="0.8"/>
  <circle cx="22" cy="12" r="1" fill="#FF69B4" opacity="0.7"/>
  <circle cx="10" cy="22" r="0.6" fill="#C71585" opacity="0.9"/>
  <circle cx="24" cy="20" r="0.7" fill="#FF1493" opacity="0.6"/>
  <circle cx="20" cy="8" r="0.5" fill="#FFCCCB" opacity="0.8"/>
  
  <!-- Inner highlight for depth -->
  <circle cx="16" cy="16" r="1.5" fill="#FFCCCB" opacity="0.6"/>
</svg>